<svg width="26" height="26" viewBox="0 0 26 26" fill="none" xmlns="http://www.w3.org/2000/svg">
<path d="M10.6252 17.849C10.1008 16.5573 8.83365 15.6463 7.3537 15.6463C5.40455 15.6463 3.82444 17.2264 3.82444 19.1756C3.82444 20.6375 2.63934 21.8225 1.17747 21.8225C1.11783 21.8225 1.05865 21.8206 1 21.8167C1.9145 23.4023 3.62714 24.4695 5.58904 24.4695C8.50448 24.4695 10.8695 22.1128 10.8829 19.2005C10.8829 19.1922 10.883 19.1839 10.883 19.1756C10.883 18.7064 10.7914 18.2586 10.6252 17.849ZM10.6252 17.849C12.0302 17.3702 13.3666 16.7292 14.6093 15.9437M8.67717 15.9132C9.15633 14.5049 9.79842 13.1654 10.5856 11.92M14.6093 15.9437C16.8215 14.5453 18.7366 12.689 20.2127 10.4749L24.7725 3.63516C24.9208 3.41266 25 3.15123 25 2.88381C25 2.13573 24.3936 1.5293 23.6455 1.5293C23.3781 1.5293 23.1166 1.60845 22.8941 1.75679L16.0544 6.31658C13.8403 7.79271 11.984 9.70781 10.5856 11.92M14.6093 15.9437C13.8118 14.1561 12.3732 12.7175 10.5856 11.92" stroke="url(#paint0_linear_984_15974)" stroke-width="2" stroke-linecap="round" stroke-linejoin="round"/>
<defs>
<linearGradient id="paint0_linear_984_15974" x1="1" y1="12.9994" x2="25" y2="12.9994" gradientUnits="userSpaceOnUse">
<stop stop-color="#5B52CC"/>
<stop offset="1" stop-color="#9C43D1"/>
</linearGradient>
</defs>
</svg>
