<svg width="26" height="24" viewBox="0 0 26 24" fill="none" xmlns="http://www.w3.org/2000/svg">
<path d="M4.69231 14.7688H21.3077M4.69231 14.7688C2.6531 14.7688 1 13.1157 1 11.0765M4.69231 14.7688C2.6531 14.7688 1 16.4219 1 18.4611C1 20.5003 2.6531 22.1534 4.69231 22.1534H21.3077C23.3469 22.1534 25 20.5003 25 18.4611C25 16.4219 23.3469 14.7688 21.3077 14.7688M1 11.0765C1 9.03727 2.6531 7.38416 4.69231 7.38416H21.3077C23.3469 7.38416 25 9.03727 25 11.0765M1 11.0765C1 9.87811 1.38868 8.71208 2.10769 7.7534L5.29231 3.50724C6.07678 2.46128 7.30793 1.8457 8.61538 1.8457H17.3846C18.6921 1.8457 19.9232 2.46128 20.7077 3.50724L23.8923 7.7534C24.6113 8.71208 25 9.87811 25 11.0765M25 11.0765C25 13.1157 23.3469 14.7688 21.3077 14.7688M21.3077 18.4611H21.3169V18.4703H21.3077V18.4611ZM21.3077 11.0765H21.3169V11.0857H21.3077V11.0765ZM17.6154 18.4611H17.6246V18.4703H17.6154V18.4611ZM17.6154 11.0765H17.6246V11.0857H17.6154V11.0765Z" stroke="url(#paint0_linear_984_15981)" stroke-width="2" stroke-linecap="round" stroke-linejoin="round"/>
<defs>
<linearGradient id="paint0_linear_984_15981" x1="1" y1="11.9995" x2="25" y2="11.9995" gradientUnits="userSpaceOnUse">
<stop stop-color="#5B52CC"/>
<stop offset="1" stop-color="#9C43D1"/>
</linearGradient>
</defs>
</svg>
