<svg width="26" height="26" viewBox="0 0 26 26" fill="none" xmlns="http://www.w3.org/2000/svg">
<path fill-rule="evenodd" clip-rule="evenodd" d="M8.125 1C8.6872 1 9.20875 1.17731 9.6358 1.47818C9.95732 1.38444 10.2844 1.3038 10.6165 1.23686C11.5905 1.04049 12.4343 1.40291 13 2.03337C13.5657 1.40291 14.4095 1.04049 15.3835 1.23686C15.7156 1.3038 16.0427 1.38444 16.3642 1.47818C16.7912 1.17731 17.3128 1 17.875 1C19.2641 1 20.4011 2.07891 20.4939 3.44443C20.8479 3.31852 21.2288 3.25 21.625 3.25C23.489 3.25 25 4.76104 25 6.625C25 7.43874 24.7114 8.18566 24.2323 8.76813C24.7287 10.085 25 11.5116 25 13C25 14.2977 24.7938 15.5485 24.4118 16.7208C24.7826 17.2627 25 17.919 25 18.625C25 20.489 23.489 22 21.625 22C21.4127 22 21.2044 21.9803 21.0021 21.9425C20.8305 22.0962 20.6544 22.245 20.4741 22.3888C20.2574 23.9803 18.7097 25 16.75 25C15.1847 25 13.8062 24.2009 13 22.9883C12.1938 24.2009 10.8153 25 9.25 25C7.29036 25 5.74263 23.9803 5.52598 22.3888C5.34563 22.245 5.16952 22.0962 4.99787 21.9425C4.79562 21.9803 4.58736 22 4.375 22C2.51104 22 1 20.489 1 18.625C1 17.919 1.21739 17.2627 1.58822 16.7208C1.20625 15.5485 1 14.2977 1 13C1 11.5116 1.27132 10.085 1.76771 8.76813C1.2886 8.18566 1 7.43874 1 6.625C1 4.76104 2.51104 3.25 4.375 3.25C4.77113 3.25 5.1521 3.31852 5.50611 3.44443C5.59888 2.07891 6.73595 1 8.125 1ZM12.25 20.5V4C12.25 3.11954 11.5632 2.57617 10.9129 2.70728C10.6034 2.76966 10.299 2.84566 10 2.93461V4.81434L11.2803 6.09467C11.5732 6.38757 11.5732 6.86244 11.2803 7.15533C10.9874 7.44822 10.5126 7.44822 10.2197 7.15533L8.71968 5.65533C8.57905 5.51468 8.5 5.32392 8.5 5.125V2.56382C8.38277 2.52243 8.25662 2.5 8.125 2.5C7.50368 2.5 7 3.00368 7 3.625C7 3.69764 7.00679 3.76803 7.01957 3.83574C7.07272 4.11742 6.96066 4.40476 6.73084 4.5761C6.56306 4.70117 6.39913 4.83116 6.23927 4.96583C5.99112 5.17487 5.63669 5.20065 5.36092 5.02971C5.07498 4.85247 4.7381 4.75 4.375 4.75C3.33947 4.75 2.5 5.58947 2.5 6.625C2.5 7.0924 2.67037 7.51938 2.95385 7.84821H4.375C4.78922 7.84821 5.125 8.184 5.125 8.59818C5.125 9.0124 4.78922 9.34818 4.375 9.34818H3.15223C2.73061 10.4847 2.5 11.7147 2.5 13C2.5 14.0434 2.65196 15.0502 2.93461 16H5.5V14.5C5.5 14.0858 5.83579 13.75 6.25 13.75C6.66421 13.75 7 14.0858 7 14.5V16.2865L8.08541 16.8292C8.3395 16.9563 8.5 17.2159 8.5 17.5V19C8.5 19.4142 8.16422 19.75 7.75 19.75C7.33578 19.75 7 19.4142 7 19V17.9635L6.07295 17.5H2.8748C2.63908 17.8136 2.5 18.2024 2.5 18.625C2.5 19.6605 3.33947 20.5 4.375 20.5C4.58438 20.5 4.78429 20.466 4.97039 20.4037C5.2349 20.3152 5.52667 20.3808 5.72784 20.574C6.03479 20.8688 6.35959 21.1451 6.70044 21.4011C6.88896 21.5427 6.99992 21.7648 7 22.0005C7.00024 22.6733 7.61446 23.5 9.25 23.5C10.9068 23.5 12.25 22.1568 12.25 20.5ZM13.75 4V20.5C13.75 22.1568 15.0932 23.5 16.75 23.5C18.3855 23.5 18.9998 22.6733 19 22.0005C19.0001 21.7648 19.1111 21.5427 19.2996 21.4011C19.6404 21.1451 19.9652 20.8688 20.2722 20.574C20.4733 20.3808 20.7651 20.3152 21.0296 20.4037C21.2157 20.466 21.4156 20.5 21.625 20.5C22.6605 20.5 23.5 19.6605 23.5 18.625C23.5 18.2024 23.361 17.8136 23.1252 17.5H19.9271L19 17.9635V19C19 19.4142 18.6642 19.75 18.25 19.75C17.8358 19.75 17.5 19.4142 17.5 19V17.5C17.5 17.2159 17.6605 16.9563 17.9146 16.8292L19 16.2865V14.5C19 14.0858 19.3358 13.75 19.75 13.75C20.1642 13.75 20.5 14.0858 20.5 14.5V16H23.0654C23.348 15.0502 23.5 14.0434 23.5 13C23.5 11.7147 23.2694 10.4847 22.8478 9.34818H21.625C21.2108 9.34818 20.875 9.0124 20.875 8.59818C20.875 8.184 21.2108 7.84821 21.625 7.84821H23.0462C23.3296 7.51938 23.5 7.0924 23.5 6.625C23.5 5.58947 22.6605 4.75 21.625 4.75C21.2619 4.75 20.925 4.85247 20.639 5.02971C20.3633 5.20065 20.0089 5.17487 19.7607 4.96583C19.6009 4.83116 19.437 4.70117 19.2692 4.5761C19.0394 4.40476 18.9272 4.11742 18.9804 3.83574C18.9932 3.76803 19 3.69764 19 3.625C19 3.00368 18.4963 2.5 17.875 2.5C17.7434 2.5 17.6172 2.52243 17.5 2.56382V5.125C17.5 5.32392 17.4209 5.51468 17.2803 5.65533L15.7803 7.15533C15.4874 7.44822 15.0126 7.44822 14.7197 7.15533C14.4268 6.86244 14.4268 6.38757 14.7197 6.09467L16 4.81434V2.93461C15.701 2.84566 15.3966 2.76966 15.0871 2.70728C14.4368 2.57617 13.75 3.11954 13.75 4Z" fill="url(#paint0_linear_984_15999)" stroke="url(#paint1_linear_984_15999)" stroke-width="0.5"/>
<defs>
<linearGradient id="paint0_linear_984_15999" x1="1" y1="13" x2="25" y2="13" gradientUnits="userSpaceOnUse">
<stop stop-color="#5B52CC"/>
<stop offset="1" stop-color="#9C43D1"/>
</linearGradient>
<linearGradient id="paint1_linear_984_15999" x1="1" y1="13" x2="25" y2="13" gradientUnits="userSpaceOnUse">
<stop stop-color="#5B52CC"/>
<stop offset="1" stop-color="#9C43D1"/>
</linearGradient>
</defs>
</svg>
