<svg width="21" height="20" fill="none" xmlns="http://www.w3.org/2000/svg"><path d="M10.715 20c-5.514 0-10-4.486-10-10s4.486-10 10-10 10 4.486 10 10-4.486 10-10 10Zm0-18.182C6.204 1.818 2.533 5.49 2.533 10c0 4.51 3.671 8.182 8.182 8.182 4.51 0 8.182-3.671 8.182-8.182 0-4.51-3.671-8.182-8.182-8.182Z" fill="#A8A8B2"/><path d="M10.714 15.455a.91.91 0 0 1-.91-.909V9.183a.91.91 0 0 1 1.819 0v5.363a.91.91 0 0 1-.91.91ZM11.623 5.454a.909.909 0 1 0-1.818 0 .909.909 0 0 0 1.818 0Z" fill="#A8A8B2"/></svg>