<svg width="21" height="20" fill="none" xmlns="http://www.w3.org/2000/svg"><path d="M8.573 5.853a2.831 2.831 0 0 0-.592-3.13L6.085.829A2.788 2.788 0 0 0 3.67.034a2.818 2.818 0 0 0-2.09 1.488 7.8 7.8 0 0 0-.662 5.624c1.212 4.8 7.81 11.402 12.609 12.605A8.127 8.127 0 0 0 15.51 20c1.27 0 2.52-.313 3.642-.91a2.826 2.826 0 0 0 .693-4.5l-1.895-1.897a2.83 2.83 0 0 0-3.13-.592 4.41 4.41 0 0 0-1.338.898c-.464.466-2.174-.21-3.886-1.92C7.884 9.368 7.21 7.658 7.67 7.192c.38-.387.686-.841.902-1.339Zm-.265 6.513c2.084 2.083 4.888 3.487 6.454 1.92.231-.221.5-.398.794-.523a1 1 0 0 1 1.104.217l1.895 1.896a1.012 1.012 0 0 1-.255 1.607 5.926 5.926 0 0 1-4.333.506C9.843 16.949 3.726 10.83 2.686 6.702a5.937 5.937 0 0 1 .506-4.336 1.014 1.014 0 0 1 1.607-.252l1.896 1.895a1 1 0 0 1 .217 1.103 2.635 2.635 0 0 1-.522.8c-1.568 1.562-.165 4.363 1.918 6.454Z" fill="#A8A8B2"/></svg>