<svg width="78" height="48" fill="none" xmlns="http://www.w3.org/2000/svg"><path fill-rule="evenodd" clip-rule="evenodd" d="M77.714 24c0-13.255-17.397-24-38.857-24S0 10.745 0 24s17.397 24 38.857 24 38.857-10.745 38.857-24Z" fill="#5F37B6"/><path fill-rule="evenodd" clip-rule="evenodd" d="M77.18 24c0-6.43-4.252-12.272-11.127-16.517C59.103 3.19 49.488.535 38.857.535S18.611 3.19 11.661 7.483C4.787 11.729.535 17.57.535 24s4.252 12.272 11.126 16.517c6.95 4.293 16.565 6.948 27.196 6.948s20.246-2.655 27.196-6.948C72.928 36.271 77.18 30.43 77.18 24Zm.534 0c0-13.255-17.397-24-38.857-24S0 10.745 0 24s17.397 24 38.857 24 38.857-10.745 38.857-24Z" fill="#5F37B6"/><path fill-rule="evenodd" clip-rule="evenodd" d="M11.05 34.703c3.207 0 4.808-1.892 5.446-3.72h8.723c0-2.457-2.892-3.922-5.221-3.922h-1.874l4.346-10.465 5.952 14.333c.833 2.461 3.084 3.88 5.468 3.774L24.42 11.9c-2.71-.445-4.217 1.035-5.643 4.198L11.05 34.704ZM36.574 34.7V17.898c0-3.917 2.228-6.002 4.305-6.002v17.555c0 3.72-2.281 5.25-4.305 5.25ZM55.162 34.685l-1.717-4.133a7.546 7.546 0 0 1-4.443-10.698 7.58 7.58 0 0 1 3.796-3.472 7.502 7.502 0 0 1 2.893-.574 7.544 7.544 0 0 1 7.546 7.541 7.53 7.53 0 0 1-3.066 6.07l-3.448-8.306c-2.294 1.117-2.662 3.223-.783 7.36l4.848 11.677c2.633-1.074 2.501-3.224 1.319-6.07l-.447-1.076c3.233-2 5.386-5.576 5.386-9.654 0-6.268-5.084-11.348-11.355-11.348a11.392 11.392 0 0 0-4.354.864 11.406 11.406 0 0 0-4.052 2.854 11.302 11.302 0 0 0-2.95 7.63c0 6.09 4.801 11.059 10.826 11.335Z" fill="#F9F9F9"/></svg>