<svg width="23" height="16" viewBox="0 0 23 16" fill="none" xmlns="http://www.w3.org/2000/svg">
<path d="M1.00698 8.72396L4.9979 12.7149C5.18381 12.9075 5.43919 13.0172 5.70679 13.0195C5.97454 13.0219 6.23176 12.9165 6.42102 12.7274C6.61027 12.5382 6.7155 12.2808 6.71332 12.0132C6.71098 11.7456 6.60124 11.49 6.40865 11.3041L3.12311 8.01858L6.40865 4.73304C6.60124 4.54713 6.71098 4.29158 6.71332 4.02398C6.71549 3.7564 6.61026 3.49901 6.42102 3.30976C6.23177 3.12067 5.97455 3.01528 5.70679 3.01762C5.4392 3.01995 5.18383 3.1297 4.9979 3.32228L1.00698 7.31321C0.819906 7.50028 0.714844 7.75402 0.714844 8.01858C0.714844 8.28314 0.819906 8.53688 1.00698 8.72396Z" fill="#A8A8B2"/>
<path d="M18.3834 3.32228C18.1975 3.1297 17.9421 3.01996 17.6745 3.01762C17.4068 3.01528 17.1496 3.12068 16.9603 3.30976C16.7711 3.49901 16.6658 3.75639 16.668 4.02398C16.6703 4.29157 16.7801 4.54712 16.9727 4.73304L20.2582 8.01858L16.9727 11.3041C16.7801 11.49 16.6703 11.7456 16.668 12.0132C16.6658 12.2808 16.7711 12.5382 16.9603 12.7274C17.1496 12.9165 17.4068 13.0219 17.6745 13.0195C17.9421 13.0172 18.1975 12.9075 18.3834 12.7149L22.3743 8.72396C22.5614 8.53688 22.6665 8.28314 22.6665 8.01858C22.6665 7.75402 22.5614 7.50028 22.3743 7.31321L18.3834 3.32228Z" fill="#A8A8B2"/>
<path d="M12.7285 0.760347L8.73762 14.7289C8.66496 14.9831 8.6962 15.2559 8.82465 15.4871C8.95293 15.7184 9.1679 15.8891 9.42214 15.9621C9.5115 15.9868 9.6037 15.9995 9.69641 16C9.91322 15.9998 10.1242 15.929 10.2972 15.7982C10.4701 15.6676 10.5959 15.484 10.6554 15.2756L14.6463 1.30699C14.7303 1.04926 14.7059 0.768468 14.5786 0.529138C14.4512 0.289778 14.232 0.112557 13.9713 0.0382474C13.7106 -0.0360831 13.4308 -0.00117252 13.1964 0.135126C12.9621 0.271258 12.7932 0.497085 12.7286 0.760327L12.7285 0.760347Z" fill="#A8A8B2"/>
</svg>
