<svg width="22" height="16" viewBox="0 0 22 16" fill="none" xmlns="http://www.w3.org/2000/svg">
<path d="M0.29214 8.72396L4.28306 12.7149C4.46897 12.9075 4.72435 13.0172 4.99194 13.0195C5.2597 13.0219 5.51692 12.9165 5.70617 12.7274C5.89542 12.5382 6.00065 12.2808 5.99848 12.0132C5.99614 11.7456 5.8864 11.49 5.69381 11.3041L2.40827 8.01858L5.69381 4.73304C5.8864 4.54713 5.99614 4.29158 5.99848 4.02398C6.00065 3.7564 5.89542 3.49901 5.70617 3.30976C5.51692 3.12067 5.25971 3.01528 4.99194 3.01762C4.72436 3.01995 4.46898 3.1297 4.28306 3.32228L0.29214 7.31321C0.105063 7.50028 0 7.75402 0 8.01858C0 8.28314 0.105063 8.53688 0.29214 8.72396Z" fill="white"/>
<path d="M17.6686 3.32228C17.4827 3.1297 17.2273 3.01996 16.9597 3.01762C16.6919 3.01528 16.4347 3.12068 16.2455 3.30976C16.0562 3.49901 15.951 3.75639 15.9532 4.02398C15.9555 4.29157 16.0652 4.54712 16.2578 4.73304L19.5434 8.01858L16.2578 11.3041C16.0652 11.49 15.9555 11.7456 15.9532 12.0132C15.951 12.2808 16.0562 12.5382 16.2455 12.7274C16.4347 12.9165 16.6919 13.0219 16.9597 13.0195C17.2273 13.0172 17.4827 12.9075 17.6686 12.7149L21.6595 8.72396C21.8466 8.53688 21.9516 8.28314 21.9516 8.01858C21.9516 7.75402 21.8466 7.50028 21.6595 7.31321L17.6686 3.32228Z" fill="white"/>
<path d="M12.0137 0.760347L8.02278 14.7289C7.95012 14.9831 7.98135 15.2559 8.1098 15.4871C8.23808 15.7184 8.45305 15.8891 8.70729 15.9621C8.79666 15.9868 8.88886 15.9995 8.98156 16C9.19837 15.9998 9.40934 15.929 9.58239 15.7982C9.75527 15.6676 9.88105 15.484 9.94051 15.2756L13.9314 1.30699C14.0154 1.04926 13.9911 0.768468 13.8638 0.529138C13.7363 0.289778 13.5172 0.112557 13.2565 0.0382474C12.9957 -0.0360831 12.7159 -0.00117252 12.4816 0.135126C12.2472 0.271258 12.0784 0.497085 12.0138 0.760327L12.0137 0.760347Z" fill="white"/>
</svg>
