<svg width="52" height="32" viewBox="0 0 52 32" fill="none" xmlns="http://www.w3.org/2000/svg">
<g opacity="0.8">
<path fill-rule="evenodd" clip-rule="evenodd" d="M51.8095 16C51.8095 7.1636 40.2116 0 25.9048 0C11.5979 0 0 7.1634 0 16C0 24.8364 11.5979 32 25.9048 32C40.2116 32 51.8095 24.8366 51.8095 16Z" fill="white"/>
<path fill-rule="evenodd" clip-rule="evenodd" d="M51.4529 16C51.4529 11.7132 48.6184 7.81896 44.0355 4.98854C39.402 2.12665 32.9923 0.356627 25.9048 0.356627C18.8172 0.356627 12.4075 2.12685 7.77399 4.98854C3.19114 7.81917 0.356657 11.7132 0.356657 16C0.356657 20.2868 3.19114 24.181 7.77399 27.0115C12.4075 29.8734 18.8172 31.6434 25.9048 31.6434C32.9923 31.6434 39.402 29.8731 44.0355 27.0115C48.6184 24.1808 51.4529 20.2868 51.4529 16ZM51.8095 16C51.8095 7.1636 40.2116 0 25.9048 0C11.5979 0 0 7.1634 0 16C0 24.8364 11.5979 32 25.9048 32C40.2116 32 51.8095 24.8366 51.8095 16Z" fill="white"/>
<path fill-rule="evenodd" clip-rule="evenodd" d="M7.36719 23.1348C9.50451 23.1348 10.5719 21.8733 10.9973 20.6547L16.8128 20.6545C16.8128 19.0168 14.8844 18.0404 13.3319 18.0404H12.0828L14.9801 11.0633L18.9481 20.6188C19.5034 22.2594 21.0037 23.205 22.5932 23.135L16.2804 7.93257C14.4735 7.63585 13.4689 8.62242 12.5178 10.7315L7.36719 23.1352V23.1348Z" fill="#5F37B6"/>
<path fill-rule="evenodd" clip-rule="evenodd" d="M24.3828 23.1341V11.9326C24.3828 9.32123 25.8679 7.93164 27.2526 7.93164V19.6344C27.2526 22.1142 25.7318 23.1341 24.3828 23.1341Z" fill="#5F37B6"/>
<path fill-rule="evenodd" clip-rule="evenodd" d="M36.7757 23.1239L35.6315 20.3685C33.5842 19.7315 32.0976 17.8229 32.0976 15.5672C32.0976 14.726 32.3043 13.9331 32.6696 13.2364C33.0329 12.5437 33.5533 11.946 34.1832 11.4906C34.4967 11.2638 34.8376 11.0726 35.1997 10.9221C35.5699 10.7684 35.9623 10.6577 36.371 10.596C36.6181 10.5587 36.8712 10.5393 37.1287 10.5393C39.9073 10.5393 42.1597 12.7902 42.1597 15.567C42.1597 17.226 41.3555 18.6975 40.1156 19.6131L37.8164 14.0763C36.2872 14.8208 36.0422 16.2247 37.2946 18.983L40.5268 26.7674C42.282 26.0511 42.194 24.6182 41.406 22.7209L41.1081 22.0034C43.2629 20.6701 44.6985 18.286 44.6985 15.567C44.6985 11.3889 41.3093 8.00195 37.1285 8.00195C36.526 8.00195 35.9401 8.07235 35.3781 8.20528C34.9811 8.29928 34.5964 8.42434 34.2262 8.57804C33.8667 8.72731 33.5212 8.9034 33.1922 9.10411C32.5723 9.48191 32.011 9.94646 31.5252 10.4806C30.3034 11.824 29.5586 13.6087 29.5586 15.5672C29.5586 19.6268 32.7586 22.9397 36.7755 23.1241L36.7757 23.1239Z" fill="#5F37B6"/>
</g>
</svg>
