<svg width="38" height="32" viewBox="0 0 38 32" fill="none" xmlns="http://www.w3.org/2000/svg">
<path fill-rule="evenodd" clip-rule="evenodd" d="M19.4383 17.3712C19.5351 17.4214 19.6432 17.446 19.7523 17.4427C19.8613 17.4394 19.9677 17.4083 20.0614 17.3524C20.1551 17.2965 20.2329 17.2175 20.2875 17.1231C20.3422 17.0287 20.3718 16.9218 20.3735 16.8127V5.68877C20.8679 5.43655 21.2829 5.05248 21.5725 4.57904C21.8621 4.1056 22.0151 3.56127 22.0146 3.00627C22.0056 2.22744 21.6982 1.48173 21.1558 0.922753C20.6134 0.36378 19.8773 0.0341347 19.0991 0.00173323C18.415 -0.0214946 17.7434 0.18932 17.1952 0.599357C16.6471 1.00939 16.2552 1.59413 16.0843 2.25698C15.9134 2.91983 15.9737 3.62114 16.2552 4.2451C16.5368 4.86905 17.0227 5.37831 17.6328 5.68877V16.4462L19.4383 17.3712ZM3.63187 4.53131H3.61132C2.83173 4.53131 2.08407 4.22162 1.53282 3.67037C0.981566 3.11911 0.671875 2.37146 0.671875 1.59187V0.00223739H9.07909C10.2967 0.00222881 13.1001 0.263942 14.2078 0.769645C13.732 1.77135 13.5835 2.89739 13.7833 3.98819C13.9832 5.079 14.5212 6.07926 15.3212 6.84724V11.4585C15.0247 11.3642 14.7172 11.309 14.4065 11.2941C14.1775 11.2842 13.9481 11.2956 13.7213 11.3283C13.3657 11.3833 13.0197 11.4883 12.6935 11.6401C12.4609 11.7455 12.0374 11.866 11.5643 12.0005L11.5643 12.0006L11.5643 12.0006C10.6943 12.2481 9.65648 12.5433 9.32919 12.8803C8.58602 12.8308 7.88946 12.5006 7.38058 11.9567C6.8717 11.4129 6.58854 10.6959 6.58845 9.95112V8.71094H6.57132C5.79173 8.71094 5.04407 8.40125 4.49282 7.85C3.94156 7.29874 3.63187 6.55108 3.63187 5.77149V4.53131ZM23.8005 0.769645C24.2742 1.77306 24.4199 2.90017 24.217 3.99107C24.014 5.08198 23.4728 6.08128 22.6699 6.84724V11.462C22.9662 11.3665 23.2737 11.3101 23.5846 11.2941H23.7491C24.2412 11.2935 24.7283 11.3926 25.1811 11.5853C25.4172 11.6854 25.8217 11.8009 26.2766 11.9307L26.2766 11.9307C27.1937 12.1925 28.3157 12.5128 28.6756 12.8837C29.4188 12.8342 30.1154 12.504 30.6242 11.9602C31.1331 11.4163 31.4163 10.6994 31.4164 9.95455V8.71094H31.4335C32.2131 8.71094 32.9608 8.40125 33.512 7.85C34.0633 7.29874 34.373 6.55108 34.373 5.77149V4.53131H34.3901C35.1697 4.53131 35.9173 4.22162 36.4686 3.67037C37.0198 3.11911 37.3295 2.37146 37.3295 1.59187V0.00223739H28.9292C27.7115 0.00222881 24.9081 0.263942 23.8005 0.769645ZM25.785 14.9124C26.1592 15.4524 26.3702 16.0886 26.3929 16.7452C26.4201 17.396 26.2611 18.0411 25.9347 18.6048C25.6082 19.1685 25.1278 19.6275 24.5498 19.9279L24.4539 19.9792L21.9666 21.2811L24.5464 22.6515C25.1268 22.9571 25.6087 23.4211 25.936 23.9897C26.2632 24.5582 26.4225 25.2079 26.3952 25.8634C26.3679 26.5188 26.1553 27.1531 25.7819 27.6925C25.4086 28.2319 24.8898 28.6543 24.286 28.9106C24.117 28.9826 23.9352 29.0199 23.7516 29.0203H23.6899C23.3879 28.9976 23.1019 28.8756 22.8766 28.6732C22.6513 28.4708 22.4994 28.1995 22.4446 27.9017C22.3898 27.6038 22.4352 27.2962 22.5737 27.0269C22.7123 26.7576 22.9361 26.5418 23.2103 26.4131C23.3361 26.3592 23.4441 26.2707 23.5219 26.158C23.5996 26.0453 23.6439 25.9129 23.6496 25.776C23.6554 25.6392 23.6223 25.5036 23.5543 25.3847C23.4862 25.2659 23.386 25.1687 23.2651 25.1044L17.8384 22.2472L13.4601 19.9724C12.8796 19.6668 12.3978 19.2027 12.0705 18.6342C11.7432 18.0657 11.584 17.4159 11.6112 16.7605C11.6385 16.105 11.8512 15.4708 12.2245 14.9314C12.5979 14.392 13.1166 13.9696 13.7204 13.7132C13.8894 13.6412 14.0712 13.604 14.2549 13.6036H14.3166C14.6221 13.6228 14.9124 13.7438 15.1412 13.9472C15.3699 14.1506 15.524 14.4248 15.5788 14.726C15.6336 15.0272 15.586 15.338 15.4435 15.609C15.301 15.88 15.0719 16.0954 14.7928 16.221C14.6669 16.275 14.5589 16.3634 14.4812 16.4762C14.4034 16.5889 14.3591 16.7213 14.3534 16.8581C14.3477 16.9949 14.3807 17.1306 14.4488 17.2494C14.5168 17.3682 14.6171 17.4654 14.7379 17.5297L19.0032 19.7703L23.2719 17.5434C23.3928 17.4791 23.4931 17.3819 23.5611 17.2631C23.6291 17.1443 23.6622 17.0086 23.6565 16.8718C23.6507 16.735 23.6065 16.6026 23.5287 16.4899C23.451 16.3771 23.343 16.2887 23.2171 16.2347C22.9308 16.1136 22.6941 15.8987 22.546 15.6253C22.3979 15.3519 22.3472 15.0363 22.4022 14.7303C22.4572 14.4242 22.6146 14.146 22.8486 13.9413C23.0826 13.7365 23.3793 13.6175 23.6899 13.6036H23.7516C23.9332 13.6001 24.1137 13.6327 24.2826 13.6995C24.8893 13.9514 25.4109 14.3724 25.785 14.9124ZM16.541 24.1404L14.739 25.0894L14.7424 25.0928C14.6215 25.1571 14.5213 25.2543 14.4532 25.3731C14.3852 25.4919 14.3521 25.6276 14.3579 25.7644C14.3636 25.9012 14.4079 26.0336 14.4856 26.1463C14.5634 26.2591 14.6714 26.3475 14.7972 26.4015C15.0838 26.5228 15.3205 26.738 15.4685 27.0117C15.6165 27.2854 15.6669 27.6013 15.6115 27.9075C15.5561 28.2137 15.3981 28.4919 15.1636 28.6964C14.9291 28.9009 14.6319 29.0194 14.321 29.0326H14.2594C14.0757 29.0322 13.8939 28.995 13.7249 28.923C13.1211 28.6666 12.6023 28.2442 12.229 27.7048C11.8556 27.1654 11.643 26.5311 11.6157 25.8757C11.5885 25.2203 11.7477 24.5705 12.075 24.002C12.4022 23.4334 12.8841 22.9694 13.4646 22.6638L13.581 22.6021L16.541 24.1404ZM20.3765 26.1765V30.6302C20.3765 30.9937 20.2321 31.3422 19.9751 31.5992C19.7182 31.8562 19.3696 32.0006 19.0061 32.0006C18.6427 32.0006 18.2941 31.8562 18.0372 31.5992C17.7802 31.3422 17.6358 30.9937 17.6358 30.6302V24.7411L20.3765 26.1765Z" fill="url(#paint0_linear_984_15932)"/>
<defs>
<linearGradient id="paint0_linear_984_15932" x1="19.0007" y1="8.50016" x2="19.0007" y2="32.0006" gradientUnits="userSpaceOnUse">
<stop stop-color="#FDF7E4"/>
<stop offset="1" stop-color="#E2FDDA"/>
</linearGradient>
</defs>
</svg>
