<svg width="32" height="32" viewBox="0 0 32 32" fill="none" xmlns="http://www.w3.org/2000/svg">
<path fill-rule="evenodd" clip-rule="evenodd" d="M8.61539 4.92308C8.61539 2.20414 10.8195 0 13.5385 0H18.4615C21.1805 0 23.3846 2.20414 23.3846 4.92308V5.25945C24.9148 5.39953 26.4327 5.58271 27.9369 5.80778C30.323 6.16481 32 8.24063 32 10.594V15.5715C32 17.559 30.7961 19.4318 28.8225 20.0879C24.7903 21.4285 20.4786 22.1538 16.0001 22.1538C11.5214 22.1538 7.20972 21.4285 3.17746 20.0879C1.20392 19.4317 0 17.559 0 15.5715V10.594C0 8.24063 1.67698 6.16481 4.06311 5.80778C5.56735 5.58271 7.08518 5.39953 8.61539 5.25945V4.92308ZM20.9231 4.92308V5.07212C19.2946 4.97323 17.6531 4.92308 16 4.92308C14.3469 4.92308 12.7054 4.97323 11.0769 5.07212V4.92308C11.0769 3.56361 12.179 2.46154 13.5385 2.46154H18.4615C19.821 2.46154 20.9231 3.56361 20.9231 4.92308ZM16 18.4615C16.6797 18.4615 17.2308 17.9105 17.2308 17.2308C17.2308 16.551 16.6797 16 16 16C15.3203 16 14.7692 16.551 14.7692 17.2308C14.7692 17.9105 15.3203 18.4615 16 18.4615Z" fill="url(#paint0_linear_984_15919)"/>
<path d="M1.23077 26.5025V21.9141C1.59678 22.1149 1.98724 22.2862 2.40088 22.4237C6.6804 23.8465 11.2542 24.6154 16.0001 24.6154C20.7459 24.6154 25.3196 23.8465 29.5991 22.4238C30.0128 22.2862 30.4032 22.1149 30.7692 21.9142V26.5025C30.7692 28.8851 29.0507 30.9784 26.6287 31.3C23.1508 31.7618 19.6029 32 16 32C12.3971 32 8.84917 31.7618 5.3713 31.3C2.94932 30.9784 1.23077 28.8851 1.23077 26.5025Z" fill="url(#paint1_linear_984_15919)"/>
<defs>
<linearGradient id="paint0_linear_984_15919" x1="16" y1="8.5" x2="16" y2="32" gradientUnits="userSpaceOnUse">
<stop stop-color="#FDF7E4"/>
<stop offset="1" stop-color="#E2FDDA"/>
</linearGradient>
<linearGradient id="paint1_linear_984_15919" x1="16" y1="8.5" x2="16" y2="32" gradientUnits="userSpaceOnUse">
<stop stop-color="#FDF7E4"/>
<stop offset="1" stop-color="#E2FDDA"/>
</linearGradient>
</defs>
</svg>
