<svg width="32" height="32" viewBox="0 0 32 32" fill="none" xmlns="http://www.w3.org/2000/svg">
<path d="M15.4582 0.136605C15.7964 -0.0455348 16.2036 -0.0455348 16.5418 0.136605L31.399 8.13661C31.7692 8.33594 32 8.72242 32 9.14286C32 9.5633 31.7692 9.94979 31.399 10.1491L16.5418 18.1491C16.2036 18.3313 15.7964 18.3313 15.4582 18.1491L0.601029 10.1491C0.230846 9.94979 0 9.5633 0 9.14286C0 8.72242 0.230846 8.33594 0.601029 8.13661L15.4582 0.136605Z" fill="url(#paint0_linear_984_15943)"/>
<path d="M2.68904 13.8694L14.3745 20.1616C15.3893 20.708 16.6107 20.708 17.6255 20.1616L29.311 13.8694L31.399 14.9937C31.7692 15.1931 32 15.5796 32 16C32 16.4204 31.7692 16.8069 31.399 17.0062L16.5418 25.0062C16.2036 25.1884 15.7964 25.1884 15.4582 25.0062L0.601029 17.0062C0.230846 16.8069 0 16.4204 0 16C0 15.5796 0.230846 15.1931 0.601029 14.9937L2.68904 13.8694Z" fill="url(#paint1_linear_984_15943)"/>
<path d="M14.3745 27.0188L2.68904 20.7266L0.601029 21.8509C0.230846 22.0502 0 22.4367 0 22.8571C0 23.2776 0.230846 23.6641 0.601029 23.8634L15.4582 31.8634C15.7964 32.0455 16.2036 32.0455 16.5418 31.8634L31.399 23.8634C31.7692 23.6641 32 23.2776 32 22.8571C32 22.4367 31.7692 22.0502 31.399 21.8509L29.311 20.7266L17.6255 27.0188C16.6107 27.5652 15.3893 27.5652 14.3745 27.0188Z" fill="url(#paint2_linear_984_15943)"/>
<defs>
<linearGradient id="paint0_linear_984_15943" x1="16" y1="8.5" x2="16" y2="32" gradientUnits="userSpaceOnUse">
<stop stop-color="#FDF7E4"/>
<stop offset="1" stop-color="#E2FDDA"/>
</linearGradient>
<linearGradient id="paint1_linear_984_15943" x1="16" y1="8.5" x2="16" y2="32" gradientUnits="userSpaceOnUse">
<stop stop-color="#FDF7E4"/>
<stop offset="1" stop-color="#E2FDDA"/>
</linearGradient>
<linearGradient id="paint2_linear_984_15943" x1="16" y1="8.5" x2="16" y2="32" gradientUnits="userSpaceOnUse">
<stop stop-color="#FDF7E4"/>
<stop offset="1" stop-color="#E2FDDA"/>
</linearGradient>
</defs>
</svg>
