<svg width="32" height="32" viewBox="0 0 32 32" fill="none" xmlns="http://www.w3.org/2000/svg">
<path fill-rule="evenodd" clip-rule="evenodd" d="M0 5.33333C0 2.38781 2.20414 0 4.92308 0H27.0769C29.7959 0 32 2.38781 32 5.33333V26.6667C32 29.6122 29.7959 32 27.0769 32H4.92308C2.20414 32 0 29.6122 0 26.6667V5.33333ZM6.51433 7.05719C6.99498 6.53649 7.77426 6.53649 8.2549 7.05719L11.9472 11.0572C12.4279 11.5779 12.4279 12.4221 11.9472 12.9428L8.2549 16.9428C7.77426 17.4635 6.99498 17.4635 6.51433 16.9428C6.03369 16.4221 6.03369 15.5779 6.51433 15.0572L9.33635 12L6.51433 8.94281C6.03369 8.42211 6.03369 7.57789 6.51433 7.05719ZM13.5385 14.6667C12.8587 14.6667 12.3077 15.2636 12.3077 16C12.3077 16.7364 12.8587 17.3333 13.5385 17.3333H18.4615C19.1413 17.3333 19.6923 16.7364 19.6923 16C19.6923 15.2636 19.1413 14.6667 18.4615 14.6667H13.5385Z" fill="url(#paint0_linear_984_15947)"/>
<defs>
<linearGradient id="paint0_linear_984_15947" x1="16" y1="8.5" x2="16" y2="32" gradientUnits="userSpaceOnUse">
<stop stop-color="#FDF7E4"/>
<stop offset="1" stop-color="#E2FDDA"/>
</linearGradient>
</defs>
</svg>
