<svg width="32" height="30" viewBox="0 0 32 30" fill="none" xmlns="http://www.w3.org/2000/svg">
<path fill-rule="evenodd" clip-rule="evenodd" d="M10.2857 6.42913C10.2857 3.27322 12.8441 0.714844 16 0.714844C19.1559 0.714844 21.7143 3.27322 21.7143 6.42913C21.7143 9.58504 19.1559 12.1434 16 12.1434C12.8441 12.1434 10.2857 9.58504 10.2857 6.42913Z" fill="url(#paint0_linear_984_15913)"/>
<path fill-rule="evenodd" clip-rule="evenodd" d="M21.7143 11.0006C21.7143 8.47583 23.761 6.42913 26.2857 6.42913C28.8104 6.42913 30.8571 8.47583 30.8571 11.0006C30.8571 13.5253 28.8104 15.572 26.2857 15.572C23.761 15.572 21.7143 13.5253 21.7143 11.0006Z" fill="url(#paint1_linear_984_15913)"/>
<path fill-rule="evenodd" clip-rule="evenodd" d="M1.14286 11.0006C1.14286 8.47583 3.18956 6.42913 5.71429 6.42913C8.23902 6.42913 10.2857 8.47583 10.2857 11.0006C10.2857 13.5253 8.23902 15.572 5.71429 15.572C3.18956 15.572 1.14286 13.5253 1.14286 11.0006Z" fill="url(#paint2_linear_984_15913)"/>
<path fill-rule="evenodd" clip-rule="evenodd" d="M7.32931 19.1796C9.15479 16.3254 12.3556 14.4291 16 14.4291C19.6449 14.4291 22.846 16.3258 24.6714 19.1807C25.9333 21.1543 26.4793 23.5342 26.2232 25.8545C26.1832 26.2172 25.9724 26.5389 25.656 26.7204C22.8105 28.3531 19.5125 29.2863 16 29.2863C12.4875 29.2863 9.18947 28.3531 6.34399 26.7204C6.02757 26.5389 5.81683 26.2172 5.77681 25.8545C5.52066 23.5337 6.06691 21.1535 7.32931 19.1796Z" fill="url(#paint3_linear_984_15913)"/>
<path d="M5.45872 17.8633C5.44037 17.8915 5.42213 17.9198 5.404 17.9481C3.93282 20.2484 3.25955 22.9879 3.46623 25.6886C2.53969 25.5478 1.64068 25.3215 0.777795 25.0176L0.602621 24.9559C0.283061 24.8433 0.0597751 24.5531 0.0329005 24.2154L0.0181686 24.0303C0.00612136 23.8789 0 23.726 0 23.572C0 20.5017 2.4214 17.997 5.45872 17.8633Z" fill="url(#paint4_linear_984_15913)"/>
<path d="M28.5343 25.6885C28.7409 22.9884 28.068 20.2494 26.5974 17.9494C26.579 17.9206 26.5605 17.8919 26.5418 17.8633C29.5789 17.9973 32 20.5019 32 23.572C32 23.726 31.9939 23.8789 31.9818 24.0303L31.9671 24.2154C31.9402 24.5531 31.7169 24.8433 31.3974 24.9559L31.2222 25.0176C30.3595 25.3214 29.4607 25.5478 28.5343 25.6885Z" fill="url(#paint5_linear_984_15913)"/>
<defs>
<linearGradient id="paint0_linear_984_15913" x1="16" y1="8.30413" x2="16" y2="29.2863" gradientUnits="userSpaceOnUse">
<stop stop-color="#FDF7E4"/>
<stop offset="1" stop-color="#E2FDDA"/>
</linearGradient>
<linearGradient id="paint1_linear_984_15913" x1="16" y1="8.30413" x2="16" y2="29.2863" gradientUnits="userSpaceOnUse">
<stop stop-color="#FDF7E4"/>
<stop offset="1" stop-color="#E2FDDA"/>
</linearGradient>
<linearGradient id="paint2_linear_984_15913" x1="16" y1="8.30413" x2="16" y2="29.2863" gradientUnits="userSpaceOnUse">
<stop stop-color="#FDF7E4"/>
<stop offset="1" stop-color="#E2FDDA"/>
</linearGradient>
<linearGradient id="paint3_linear_984_15913" x1="16" y1="8.30413" x2="16" y2="29.2863" gradientUnits="userSpaceOnUse">
<stop stop-color="#FDF7E4"/>
<stop offset="1" stop-color="#E2FDDA"/>
</linearGradient>
<linearGradient id="paint4_linear_984_15913" x1="16" y1="8.30413" x2="16" y2="29.2863" gradientUnits="userSpaceOnUse">
<stop stop-color="#FDF7E4"/>
<stop offset="1" stop-color="#E2FDDA"/>
</linearGradient>
<linearGradient id="paint5_linear_984_15913" x1="16" y1="8.30413" x2="16" y2="29.2863" gradientUnits="userSpaceOnUse">
<stop stop-color="#FDF7E4"/>
<stop offset="1" stop-color="#E2FDDA"/>
</linearGradient>
</defs>
</svg>
