<svg width="32" height="32" viewBox="0 0 32 32" fill="none" xmlns="http://www.w3.org/2000/svg">
<path fill-rule="evenodd" clip-rule="evenodd" d="M0 5.33333C0 2.38781 2.38782 0 5.33333 0H26.6667C29.6122 0 32 2.38782 32 5.33333V26.6667C32 29.6122 29.6122 32 26.6667 32H5.33333C2.38781 32 0 29.6122 0 26.6667V5.33333ZM25.3333 16C25.3333 16.3536 25.1929 16.6928 24.9428 16.9428L20.9428 20.9428C20.4221 21.4635 19.5779 21.4635 19.0572 20.9428C18.5365 20.4221 18.5365 19.5779 19.0572 19.0572L22.1144 16L19.0572 12.9428C18.5365 12.4221 18.5365 11.5779 19.0572 11.0572C19.5779 10.5365 20.4221 10.5365 20.9428 11.0572L24.9428 15.0572C25.1929 15.3072 25.3333 15.6464 25.3333 16ZM7.05719 15.0572C6.80714 15.3072 6.66667 15.6464 6.66667 16C6.66667 16.3536 6.80714 16.6928 7.05719 16.9428L11.0572 20.9428C11.5779 21.4635 12.4221 21.4635 12.9428 20.9428C13.4635 20.4221 13.4635 19.5779 12.9428 19.0572L9.88562 16L12.9428 12.9428C13.4635 12.4221 13.4635 11.5779 12.9428 11.0572C12.4221 10.5365 11.5779 10.5365 11.0572 11.0572L7.05719 15.0572Z" fill="url(#paint0_linear_984_15925)"/>
<defs>
<linearGradient id="paint0_linear_984_15925" x1="16" y1="8.5" x2="16" y2="32" gradientUnits="userSpaceOnUse">
<stop stop-color="#FDF7E4"/>
<stop offset="1" stop-color="#E2FDDA"/>
</linearGradient>
</defs>
</svg>
